<svg height="512pt" viewBox="0 0 512 512" width="512pt" xmlns="http://www.w3.org/2000/svg"><path d="m452.128906 417.730469v-8.410157c0-.855468 0-1.761718.0625-2.648437.582032-5.230469-.398437-10.515625-2.824218-15.1875-5.0625-6.820313-12.03125-11.984375-20.03125-14.839844-1.703126-.792969-3.242188-1.535156-4.625-2.269531-9.480469-5.121094-18.960938-10.179688-28.296876-15.523438-10.769531-6.535156-22.566406-11.210937-34.890624-13.824218-13.300782-3.703125-25.890626-9.589844-37.257813-17.425782v-13.148437c1.253906-1.195313 2.441406-2.390625 3.839844-3.582031 25.011719-21.402344 24.285156-41.816406 23.324219-59.941406 15.222656-6.785157 26.644531-19.984376 31.171874-36.027344 1.875-11.269532 4.582032-38.050782-10.726562-43.109375-4.363281-1.433594-9.058594-1.527344-13.476562-.273438 0-4.933593-.050782-10.027343-.238282-15.359375.132813-.847656.210938-1.703125.238282-2.558594-.050782-1.285156-.191407-2.5625-.425782-3.824218v-.476563l-.246094-4.667969c-2.96875-57.59375-63.257812-75.128906-95.070312-76.367187h-13.652344c-31.480468 1.230469-91.769531 18.773437-94.722656 76.355469l-.21875 4.363281c-.296875 1.519531-.453125 3.066406-.460938 4.617187.039063.875.128907 1.75.261719 2.617188-.1875 5.300781-.261719 10.378906-.261719 15.300781-4.375-1.253906-9.023437-1.167969-13.347656.246094-15.429687 5.0625-12.800781 31.832031-10.886718 43.523437 4.675781 15.871094 16.074218 28.894532 31.1875 35.632813-.964844 18.101563-1.707032 38.539063 23.339843 59.949219 1.398438 1.183594 2.558594 2.378906 3.820313 3.574218v13.167969c-11.371094 7.816407-23.960938 13.699219-37.253906 17.40625-12.324219 2.613281-24.117188 7.285157-34.886719 13.824219-9.34375 5.34375-18.824219 10.4375-28.304688 15.523438-1.382812.734374-2.960937 1.476562-4.625 2.269531-7.992187 2.851562-14.960937 8.015625-20.019531 14.828125-2.429688 4.675781-3.417969 9.964844-2.832031 15.199218 0 .855469.070312 1.765626.058593 2.664063v8.386719c.136719 14.46875 11.949219 26.105468 26.421876 26.019531h339.453124c14.457032.074219 26.257813-11.546875 26.402344-26.003906zm-135.105468-119.839844c-8.820313 7.742187-16.621094 16.578125-23.210938 26.289063-3.378906 5.5-7.742188 10.324218-12.878906 14.234374 1.972656-8.394531-.5-17.21875-6.554688-23.363281l12.683594-25.226562c1.015625.164062 2.042969.269531 3.070312.308593 10.707032.046876 20.304688-6.605468 24.015626-16.648437 3.714843-10.046875.753906-21.339844-7.410157-28.269531l25.351563-66.082032c.242187 0 .472656.066407.710937.066407 2.84375-.015625 5.667969-.511719 8.34375-1.476563-.066406 2.621094-.09375 5.300782-.230469 7.84375-.527343 10.503906-1.914062 20.945313-4.136718 31.222656-1.742188 7.402344-2.675782 14.96875-2.78125 22.570313l.167968 5.554687c-.019531.332032-.019531.660157 0 .992188l.164063 5.171875c.964844 17.722656 1.644531 30.597656-17.304687 46.8125zm-134.742188-136.390625c-2.359375.972656-5.035156.800781-7.246094-.46875-2.214844-1.269531-3.714844-3.488281-4.070312-6.015625 0-1.03125.042968-2.125.078125-3.25.8125-3.871094 4.203125-6.65625 8.15625-6.699219 4.058593.019532 7.542969 2.898438 8.332031 6.878906.785156 3.984376-1.339844 7.96875-5.089844 9.53125-.050781.015626-.101562.007813-.160156.023438zm53.597656-17.796875c2.976563 3.847656 7 6.761719 11.585938 8.386719v28.679687c-2.414063.859375-4.6875 2.074219-6.738282 3.609375l-36.78125-24.558594c.492188-1.875.761719-3.804687.804688-5.742187zm12.046875-13.144531c-.296875-.820313-.453125-1.683594-.460937-2.558594 0-4.710938 3.824218-8.535156 8.535156-8.535156s8.535156 3.824218 8.535156 8.535156c-.007812.875-.164062 1.738281-.460937 2.558594v.128906c-1.125 3.476562-4.363281 5.828125-8.015625 5.828125s-6.886719-2.351563-8.011719-5.828125v-.050781zm93.015625 20.660156c.050782 1.417969.085938 2.816406.101563 4.15625-.578125 2.351562-2.105469 4.359375-4.222657 5.539062-2.113281 1.179688-4.625 1.425782-6.929687.683594h-.09375l-.085937-.0625h-.101563l-.085937-.050781c-1.570313-.585937-2.917969-1.652344-3.847657-3.046875-.945312-1.433594-1.4375-3.121094-1.410156-4.835938.007813-.875.164063-1.742187.460937-2.5625v-.128906c1.148438-3.535156 4.476563-5.902344 8.195313-5.832031s6.953125 2.5625 7.96875 6.140625zm-95.042968 104.78125c-1.0625-2.964844-2.664063-5.710938-4.730469-8.089844l10.308593-17.972656c2.984376.617188 6.0625.617188 9.046876 0l10.308593 17.972656c-2.066406 2.378906-3.667969 5.125-4.730469 8.089844zm18.636718-51.199219c0 4.710938-3.824218 8.53125-8.535156 8.53125s-8.535156-3.820312-8.535156-8.53125c0-4.714843 3.824218-8.535156 8.535156-8.535156s8.535156 3.820313 8.535156 8.535156zm-18.636718 68.265625h20.203124c1.207032 3.4375 3.132813 6.582032 5.652344 9.214844l-12.683594 25.226562c-2.027343-.410156-4.113281-.410156-6.140624 0l-12.683594-25.226562c2.519531-2.632812 4.445312-5.777344 5.652344-9.214844zm44.234374 0c-4.710937 0-8.53125-3.820312-8.53125-8.53125 0-4.714844 3.820313-8.535156 8.53125-8.535156 1.054688.011719 2.097657.222656 3.074219.621094h.238281c3.804688 1.539062 5.976563 5.574218 5.164063 9.597656-.808594 4.023438-4.371094 6.902344-8.476563 6.847656zm0-34.132812c-1.519531.019531-3.03125.171875-4.523437.460937l-10.308594-17.972656c5.574219-6.195313 7.625-14.796875 5.445313-22.84375l34.425781-22.988281-24.332031 63.410156c-.238282 0-.46875-.066406-.707032-.066406zm17.066407-84.855469c.042969 1.941406.304687 3.875.785156 5.757813l-36.710937 24.542968c-2.050782-1.535156-4.324219-2.75-6.738282-3.609375v-28.679687c4.585938-1.625 8.609375-4.539063 11.585938-8.386719zm-75.945313 44.5c-2.179687 8.046875-.128906 16.648437 5.445313 22.84375l-10.308594 17.972656c-1.492187-.289062-3.003906-.441406-4.523437-.460937-.238282 0-.46875.066406-.707032.066406l-24.332031-63.410156zm-12.707031 58.097656h.238281c.976563-.417969 2.019532-.648437 3.082032-.675781 4.382812-.003906 8.054687 3.316406 8.496093 7.675781.4375 4.363281-2.496093 8.347657-6.792969 9.21875-4.296874.875-8.554687-1.648437-9.851562-5.835937s.792969-8.675782 4.828125-10.382813zm28.917969 76.125c0-4.714843 3.824218-8.535156 8.535156-8.535156s8.535156 3.820313 8.535156 8.535156c0 4.710938-3.824218 8.53125-8.535156 8.53125s-8.535156-3.820312-8.535156-8.53125zm118.382812-121.175781c-2.503906 7.777344-7.496094 14.515625-14.207031 19.175781.445313-3.464843 1.101563-6.828125 1.871094-10.675781 2.097656-9.792969 3.5-19.722656 4.195312-29.710938 2.257813-1.785156 5.0625-2.722656 7.9375-2.65625 1.707031 7.859376 1.777344 15.984376.203125 23.867188zm-116.503906-126.292969h12.980469c.671875 0 59.390625 2.917969 74.707031 43.035157-9.257812-1.574219-18.625 2.097656-24.351562 9.539062l-31.132813-10.375c0-14.109375-11.4375-25.550781-25.546875-25.550781s-25.546875 11.441406-25.546875 25.550781l-31.175781 10.382812c-4.804688-6.222656-12.214844-9.882812-20.078125-9.914062-1.449219.023438-2.898438.167969-4.324219.433594 14.90625-40.011719 72.046875-42.988282 74.46875-43.101563zm-103.191406 126.796875c-1.636719-8.039062-1.554688-16.335937.246094-24.34375 2.859374-.046875 5.648437.890625 7.894531 2.660156.695312 9.988282 2.097656 19.917969 4.195312 29.707032.769531 3.832031 1.425781 7.21875 1.871094 10.691406-6.59375-4.582031-11.566406-11.132812-14.207031-18.714844zm31.496094 38.949219.160156-5.171875c.023437-.332031.023437-.660156 0-.992188l.171875-5.554687c-.109375-7.601563-1.042969-15.167969-2.78125-22.570313-2.226563-10.273437-3.609375-20.707031-4.140625-31.207031-.136719-2.558593-.230469-5.238281-.296875-7.917969 2.703125.988282 5.558593 1.507813 8.4375 1.535157.238281 0 .46875-.066407.710937-.066407l25.351563 66.082032c-8.164063 6.929687-11.125 18.222656-7.410157 28.269531 3.710938 10.042969 13.308594 16.695313 24.015626 16.648437 1.027343-.039062 2.054687-.144531 3.070312-.308593l12.683594 25.226562c-6.054688 6.144531-8.527344 14.96875-6.554688 23.363281-5.136718-3.910156-9.5-8.734374-12.878906-14.234374-6.585938-9.707032-14.378906-18.539063-23.191406-26.28125-18.96875-16.222657-18.289063-29.097657-17.347656-46.820313zm-100.710938 166.601563v-8.234376c0-1.125 0-2.261718-.078125-3.414062-.292969-2.003906-.113281-4.046875.519531-5.972656 3.539063-3.558594 7.824219-6.292969 12.546875-8.003906 1.960938-.921876 3.804688-1.800782 5.425781-2.660157 9.617188-5.121093 19.234376-10.335937 28.714844-15.753906 9.136719-5.585937 19.144532-9.601563 29.609375-11.878906 1.546875-.289063 3.125-.683594 4.703125-1.117188-1.082031 18.320313.570313 46.148438 16.445313 65.996094h-88.550781c-5.046876.085937-9.214844-3.914063-9.335938-8.960937zm230.808594 8.988281h-106.863282c-28.160156-15.234375-26.863281-55.246094-24.746093-72.867188 4.191406-2.023437 8.140625-4.15625 11.621093-6.167969v11.875c0 4.714844 3.820313 8.535157 8.535157 8.535157 4.710937 0 8.53125-3.820313 8.53125-8.535157v-24.746093c8.824219 12.246093 17.402343 23.636719 37.863281 23.636719h26.625c20.480469 0 29.011719-11.390626 37.886719-23.628907v24.75c0 4.710938 3.820312 8.53125 8.535156 8.53125 4.710937 0 8.53125-3.820312 8.53125-8.53125v-11.886719c3.484375 2.011719 7.433594 4.144532 11.625 6.167969 2.089844 17.621094 3.410156 57.632813-24.75 72.867188zm127.394531-20.617188c-.042969 1.132813-.085937 2.269531-.078125 3.414063v8.257812c-.128906 5.039063-4.296875 9.03125-9.335938 8.945313h-88.550781c15.875-19.851563 17.527344-47.675781 16.445313-66 1.578125.4375 3.15625.855469 4.703125 1.121093 10.464843 2.277344 20.476562 6.292969 29.617187 11.878907 9.472656 5.417969 19.089844 10.589843 28.707032 15.75 1.621093.855469 3.464843 1.707031 5.425781 2.664062 4.726562 1.710938 9.011719 4.445313 12.554687 8.011719.625 1.921875.800782 3.957031.511719 5.957031zm0 0"/><path d="m8.535156 76.800781c4.710938 0 8.53125-3.820312 8.53125-8.535156v-25.597656c0-14.140625 11.460938-25.601563 25.601563-25.601563h25.597656c4.714844 0 8.535156-3.820312 8.535156-8.53125 0-4.714844-3.820312-8.535156-8.535156-8.535156h-25.597656c-23.554688.0273438-42.6406252 19.113281-42.667969 42.667969v25.597656c0 4.714844 3.820312 8.535156 8.535156 8.535156zm0 0"/><path d="m68.265625 494.933594h-25.597656c-14.140625 0-25.601563-11.460938-25.601563-25.601563v-25.597656c0-4.714844-3.820312-8.535156-8.53125-8.535156-4.714844 0-8.535156 3.820312-8.535156 8.535156v25.597656c.0273438 23.554688 19.113281 42.640625 42.667969 42.667969h25.597656c4.714844 0 8.535156-3.820312 8.535156-8.535156 0-4.710938-3.820312-8.53125-8.535156-8.53125zm0 0"/><path d="m503.464844 435.199219c-4.710938 0-8.53125 3.820312-8.53125 8.535156v25.597656c0 14.140625-11.460938 25.601563-25.601563 25.601563h-25.597656c-4.714844 0-8.535156 3.820312-8.535156 8.53125 0 4.714844 3.820312 8.535156 8.535156 8.535156h25.597656c23.554688-.027344 42.640625-19.113281 42.667969-42.667969v-25.597656c0-4.714844-3.820312-8.535156-8.535156-8.535156zm0 0"/><path d="m469.332031 0h-25.597656c-4.714844 0-8.535156 3.820312-8.535156 8.535156 0 4.710938 3.820312 8.53125 8.535156 8.53125h25.597656c14.140625 0 25.601563 11.460938 25.601563 25.601563v25.597656c0 4.714844 3.820312 8.535156 8.53125 8.535156 4.714844 0 8.535156-3.820312 8.535156-8.535156v-25.597656c-.027344-23.554688-19.113281-42.6406252-42.667969-42.667969zm0 0"/><path d="m51.199219 51.199219h17.066406c4.714844 0 8.535156-3.820313 8.535156-8.53125 0-4.714844-3.820312-8.535157-8.535156-8.535157h-17.066406c-9.425781 0-17.066407 7.640626-17.066407 17.066407v17.066406c0 4.714844 3.820313 8.535156 8.535157 8.535156 4.710937 0 8.53125-3.820312 8.53125-8.535156zm0 0"/><path d="m68.265625 460.800781h-17.066406v-17.066406c0-4.714844-3.820313-8.535156-8.53125-8.535156-4.714844 0-8.535157 3.820312-8.535157 8.535156v17.066406c0 9.425781 7.640626 17.066407 17.066407 17.066407h17.066406c4.714844 0 8.535156-3.820313 8.535156-8.535157 0-4.710937-3.820312-8.53125-8.535156-8.53125zm0 0"/><path d="m469.332031 435.199219c-4.710937 0-8.53125 3.820312-8.53125 8.535156v17.066406h-17.066406c-4.714844 0-8.535156 3.820313-8.535156 8.53125 0 4.714844 3.820312 8.535157 8.535156 8.535157h17.066406c9.425781 0 17.066407-7.640626 17.066407-17.066407v-17.066406c0-4.714844-3.820313-8.535156-8.535157-8.535156zm0 0"/><path d="m477.867188 51.199219c0-9.425781-7.640626-17.066407-17.066407-17.066407h-17.066406c-4.714844 0-8.535156 3.820313-8.535156 8.535157 0 4.710937 3.820312 8.53125 8.535156 8.53125h17.066406v17.066406c0 4.714844 3.820313 8.535156 8.53125 8.535156 4.714844 0 8.535157-3.820312 8.535157-8.535156zm0 0"/><path d="m349.867188 8.535156c0-4.714844-3.820313-8.535156-8.535157-8.535156h-170.664062c-4.714844 0-8.535157 3.820312-8.535157 8.535156 0 4.710938 3.820313 8.53125 8.535157 8.53125h170.664062c4.714844 0 8.535157-3.820312 8.535157-8.53125zm0 0"/><path d="m187.734375 34.132812c-4.714844 0-8.535156 3.820313-8.535156 8.535157 0 4.710937 3.820312 8.53125 8.535156 8.53125h136.53125c4.714844 0 8.535156-3.820313 8.535156-8.53125 0-4.714844-3.820312-8.535157-8.535156-8.535157zm0 0"/><path d="m324.265625 477.867188c4.714844 0 8.535156-3.820313 8.535156-8.535157 0-4.710937-3.820312-8.53125-8.535156-8.53125h-136.53125c-4.714844 0-8.535156 3.820313-8.535156 8.53125 0 4.714844 3.820312 8.535157 8.535156 8.535157zm0 0"/><path d="m341.332031 494.933594h-170.664062c-4.714844 0-8.535157 3.820312-8.535157 8.53125 0 4.714844 3.820313 8.535156 8.535157 8.535156h170.664062c4.714844 0 8.535157-3.820312 8.535157-8.535156 0-4.710938-3.820313-8.53125-8.535157-8.53125zm0 0"/><path d="m8.535156 349.867188c4.710938 0 8.53125-3.820313 8.53125-8.535157v-170.664062c0-4.714844-3.820312-8.535157-8.53125-8.535157-4.714844 0-8.535156 3.820313-8.535156 8.535157v170.664062c0 4.714844 3.820312 8.535157 8.535156 8.535157zm0 0"/><path d="m42.667969 179.199219c-4.714844 0-8.535157 3.820312-8.535157 8.535156v136.53125c0 4.714844 3.820313 8.535156 8.535157 8.535156 4.710937 0 8.53125-3.820312 8.53125-8.535156v-136.53125c0-4.714844-3.820313-8.535156-8.53125-8.535156zm0 0"/><path d="m477.867188 187.734375c0-4.714844-3.820313-8.535156-8.535157-8.535156-4.710937 0-8.53125 3.820312-8.53125 8.535156v136.53125c0 4.714844 3.820313 8.535156 8.53125 8.535156 4.714844 0 8.535157-3.820312 8.535157-8.535156zm0 0"/><path d="m503.464844 162.132812c-4.710938 0-8.53125 3.820313-8.53125 8.535157v170.664062c0 4.714844 3.820312 8.535157 8.53125 8.535157 4.714844 0 8.535156-3.820313 8.535156-8.535157v-170.664062c0-4.714844-3.820312-8.535157-8.535156-8.535157zm0 0"/></svg>